HIERARCHY
ROOT hip
{
  OFFSET 0 0 0
  CHANNELS 6 Xposition Yposition Zposition Zrotation Yrotation Xrotation
  JOINT abdomen
  {
    OFFSET 0 20.6881 -0.73152
    CHANNELS 3 Zrotation Xrotation Yrotation
    JOINT chest
    {
      OFFSET 0 11.7043 -0.48768
      CHANNELS 3 Zrotation Xrotation Yrotation
      JOINT neck
      {
        OFFSET 0 22.1894 -2.19456
        CHANNELS 3 Zrotation Xrotation Yrotation
        JOINT head
        {
          OFFSET -0.24384 7.07133 1.2192
          CHANNELS 3 Zrotation Xrotation Yrotation
          JOINT leftEye
          {
            OFFSET 4.14528 8.04674 8.04672
            CHANNELS 3 Zrotation Xrotation Yrotation
            End Site
            {
              OFFSET 1 0 0
            }
          }
          JOINT rightEye
          {
            OFFSET -3.6576 8.04674 8.04672
            CHANNELS 3 Zrotation Xrotation Yrotation
            End Site
            {
              OFFSET 1 0 0
            }
          }
        }
      }
      JOINT rCollar
      {
        OFFSET -2.68224 19.2634 -4.8768
        CHANNELS 3 Zrotation Xrotation Yrotation
        JOINT rShldr
        {
          OFFSET -8.77824 -1.95073 1.46304
          CHANNELS 3 Zrotation Xrotation Yrotation
          JOINT rForeArm
          {
            OFFSET -28.1742 -1.7115 0.48768
            CHANNELS 3 Zrotation Xrotation Yrotation
            JOINT rHand
            {
              OFFSET -22.5879 0.773209 7.07136
              CHANNELS 3 Zrotation Xrotation Yrotation
              JOINT rThumb1
              {
                OFFSET -1.2192 -0.487915 3.41376
                CHANNELS 3 Zrotation Xrotation Yrotation
                JOINT rThumb2
                {
                  OFFSET -3.37035 -0.52449 3.41376
                  CHANNELS 3 Zrotation Xrotation Yrotation
                  End Site
                  {
                    OFFSET -1.78271 -1.18214 1.43049
                  }
                }
              }
              JOINT rIndex1
              {
                OFFSET -7.75947 0.938293 5.60832
                CHANNELS 3 Zrotation Xrotation Yrotation
                JOINT rIndex2
                {
                  OFFSET -2.54057 -0.884171 1.56538
                  CHANNELS 3 Zrotation Xrotation Yrotation
                  End Site
                  {
                    OFFSET -1.62519 -0.234802 1.16502
                  }
                }
              }
              JOINT rMid1
              {
                OFFSET -8.24714 1.18213 3.41376
                CHANNELS 3 Zrotation Xrotation Yrotation
                JOINT rMid2
                {
                  OFFSET -3.10165 -0.590103 1.0647
                  CHANNELS 3 Zrotation Xrotation Yrotation
                  End Site
                  {
                    OFFSET -2.48547 -0.328903 0.83742
                  }
                }
              }
              JOINT rRing1
              {
                OFFSET -8.82822 0.546677 1.51678
                CHANNELS 3 Zrotation Xrotation Yrotation
                JOINT rRing2
                {
                  OFFSET -2.60934 -0.819778 -0.0198488
                  CHANNELS 3 Zrotation Xrotation Yrotation
                  End Site
                  {
                    OFFSET -2.33842 -0.294052 0.168128
                  }
                }
              }
              JOINT rPinky1
              {
                OFFSET -8.27202 -0.0477905 -0.4584
                CHANNELS 3 Zrotation Xrotation Yrotation
                JOINT rPinky2
                {
                  OFFSET -1.82734 -0.647385 -0.700984
                  CHANNELS 3 Zrotation Xrotation Yrotation
                  End Site
                  {
                    OFFSET -1.69225 -0.51767 -0.607171
                  }
                }
              }
            }
          }
        }
      }
      JOINT lCollar
      {
        OFFSET 2.68224 19.2634 -4.8768
        CHANNELS 3 Zrotation Xrotation Yrotation
        JOINT lShldr
        {
          OFFSET 8.77824 -1.95073 1.46304
          CHANNELS 3 Zrotation Xrotation Yrotation
          JOINT lForeArm
          {
            OFFSET 28.1742 -1.7115 0.48768
            CHANNELS 3 Zrotation Xrotation Yrotation
            JOINT lHand
            {
              OFFSET 22.5879 0.773209 7.07136
              CHANNELS 3 Zrotation Xrotation Yrotation
              JOINT lThumb1
              {
                OFFSET 1.2192 -0.487915 3.41376
                CHANNELS 3 Zrotation Xrotation Yrotation
                JOINT lThumb2
                {
                  OFFSET 3.37035 -0.52449 3.41376
                  CHANNELS 3 Zrotation Xrotation Yrotation
                  End Site
                  {
                    OFFSET 1.78271 -1.18214 1.43049
                  }
                }
              }
              JOINT lIndex1
              {
                OFFSET 7.75947 0.938293 5.60832
                CHANNELS 3 Zrotation Xrotation Yrotation
                JOINT lIndex2
                {
                  OFFSET 2.54057 -0.884171 1.56538
                  CHANNELS 3 Zrotation Xrotation Yrotation
                  End Site
                  {
                    OFFSET 1.62519 -0.234802 1.16502
                  }
                }
              }
              JOINT lMid1
              {
                OFFSET 8.24714 1.18213 3.41376
                CHANNELS 3 Zrotation Xrotation Yrotation
                JOINT lMid2
                {
                  OFFSET 3.10165 -0.590103 1.0647
                  CHANNELS 3 Zrotation Xrotation Yrotation
                  End Site
                  {
                    OFFSET 2.48547 -0.328903 0.83742
                  }
                }
              }
              JOINT lRing1
              {
                OFFSET 8.82822 0.546677 1.51678
                CHANNELS 3 Zrotation Xrotation Yrotation
                JOINT lRing2
                {
                  OFFSET 2.60934 -0.819778 -0.0198488
                  CHANNELS 3 Zrotation Xrotation Yrotation
                  End Site
                  {
                    OFFSET 2.33842 -0.294052 0.168128
                  }
                }
              }
              JOINT lPinky1
              {
                OFFSET 8.27202 -0.0477905 -0.4584
                CHANNELS 3 Zrotation Xrotation Yrotation
                JOINT lPinky2
                {
                  OFFSET 1.82734 -0.647385 -0.700984
                  CHANNELS 3 Zrotation Xrotation Yrotation
                  End Site
                  {
                    OFFSET 1.69225 -0.51767 -0.607171
                  }
                }
              }
            }
          }
        }
      }
    }
  }
  JOINT rButtock
  {
    OFFSET -8.77824 4.35084 1.2192
    CHANNELS 3 Zrotation Xrotation Yrotation
    JOINT rThigh
    {
      OFFSET 0 -1.70687 -2.19456
      CHANNELS 3 Zrotation Xrotation Yrotation
      JOINT rShin
      {
        OFFSET 0 -36.8199 0.73152
        CHANNELS 3 Zrotation Xrotation Yrotation
        JOINT rFoot
        {
          OFFSET 0.73152 -45.1104 -5.12064
          CHANNELS 3 Zrotation Xrotation Yrotation
          End Site
          {
            OFFSET -1.1221 -3.69964 12.103
          }
        }
      }
    }
  }
  JOINT lButtock
  {
    OFFSET 8.77824 4.35084 1.2192
    CHANNELS 3 Zrotation Xrotation Yrotation
    JOINT lThigh
    {
      OFFSET 0 -1.70687 -2.19456
      CHANNELS 3 Zrotation Xrotation Yrotation
      JOINT lShin
      {
        OFFSET 0 -36.8199 0.73152
        CHANNELS 3 Zrotation Xrotation Yrotation
        JOINT lFoot
        {
          OFFSET -0.73152 -45.1104 -5.12064
          CHANNELS 3 Zrotation Xrotation Yrotation
          End Site
          {
            OFFSET 1.1221 -3.69964 12.103
          }
        }
      }
    }
  }
}
MOTION
Frames:	6
Frame Time:	0.00833333
6.78361 84.1002 -43.8537 0.0 0.0 0.0 -1.51926 -0.00282946 -0.0413935 -0.4187 0.00102609 -0.0725114 1.60149e-14 0.0 -7.20594e-16 4.82208e-14 3.18055e-15 -2.16334e-15 -0.0 0.0 0.0 -0.0 0.0 0.0 8.19908e-15 4.69784e-17 -1.98785e-16 1.72955e-13 6.1499e-16 -5.76476e-15 2.94087e-12 -8.41654e-13 -1.52667e-13 3.36244e-11 1.05023e-12 -1.46624e-12 7.93193e-11 4.56084e-13 -3.51451e-12 1.36975e-10 7.88778e-13 -6.07963e-12 7.93242e-11 4.5641e-13 -3.51769e-12 7.73091 5.47488 0.417314 7.93191e-11 4.55515e-13 -3.51133e-12 2.90554 0.965183 0.102902 7.93191e-11 4.5631e-13 -3.51769e-12 10.2786 0.731801 0.0259123 7.93105e-11 4.57602e-13 -3.50815e-12 2.22167 -0.733487 -0.20892 8.10179e-15 4.89197e-17 -4.96962e-16 1.68258e-13 4.16205e-16 -7.95139e-15 2.9366e-12 9.07054e-13 -1.90833e-13 3.36164e-11 -7.04617e-13 -1.42807e-12 7.92988e-11 4.45142e-13 -3.53042e-12 1.36947e-10 7.66514e-13 -6.08838e-12 7.92916e-11 4.48061e-13 -3.51451e-12 -7.73091 5.47488 -0.417314 7.92991e-11 4.44582e-13 -3.52724e-12 -2.90554 0.965183 -0.102902 7.92897e-11 4.45476e-13 -3.52485e-12 -10.2786 0.731801 -0.0259123 7.93018e-11 4.46868e-13 -3.53678e-12 -2.22167 -0.733487 0.20892 -2.03217e-16 0.0 -3.88251e-19 -0.640569 -1.92323 -0.0064358 -0.00925444 -2.07856 -0.076426 -0.51212 3.99733 0.140307 2.03217e-16 0.0 3.88251e-19 -1.66977 -6.49782 0.154698 -0.00231037 6.20799 -0.0679812 0.534079 0.285492 -0.0665721
4.83536 82.3236 -46.1634 -6.3184 -6.9029 8.1836 -0.900889 -2.49462 0.573907 1.07143 1.22427 0.0331501 0.420302 0.101328 0.201067 -2.4527 7.24999 0.810808 -0.0 0.0 0.0 -0.0 0.0 0.0 -3.37765e-14 -9.09975e-14 1.81935e-15 21.4644 6.36114 0.791446 -3.74045 -1.61393 5.93173 0.00781885 -1.96169 -0.275114 6.29695e-10 -5.7736e-10 3.84373e-10 1.08694e-09 -9.95982e-10 6.66359e-10 6.29701e-10 -5.77359e-10 3.84372e-10 7.73091 5.47488 0.417314 6.29694e-10 -5.77358e-10 3.84378e-10 2.90554 0.965183 0.102902 6.29696e-10 -5.77358e-10 3.84373e-10 10.2786 0.731801 0.0259123 6.29686e-10 -5.77357e-10 3.84382e-10 2.22167 -0.733487 -0.20892 -3.38677e-14 -9.09949e-14 1.4905e-15 -22.3919 8.10108 -1.8415 3.09527 -1.23872 -5.00132 -0.000353855 0.421651 -0.0592536 8.59928e-10 6.2915e-10 1.05846e-11 1.48592e-09 1.08702e-09 1.69066e-11 8.59921e-10 6.29151e-10 1.05984e-11 -7.73091 5.47488 -0.417314 8.5993e-10 6.29149e-10 1.05879e-11 -2.90554 0.965183 -0.102902 8.5992e-10 6.29149e-10 1.05892e-11 -10.2786 0.731801 -0.0259123 8.5993e-10 6.2915e-10 1.05791e-11 -2.22167 -0.733487 0.20892 -2.03217e-16 0.0 -3.88251e-19 0.388674 -6.4973 0.283029 0.00639297 6.06492 0.0678621 -0.668364 0.276004 -1.87386 2.03217e-16 0.0 3.88251e-19 0.1978 -9.7626 1.34813 -0.0173307 13.6821 -0.204557 0.838615 -4.22802 2.48115
4.83208 82.3247 -46.1606 -6.3231 -6.9256 8.173 -0.19064 -5.12706 1.23142 2.64105 2.51645 0.146008 0.865283 0.20862 0.413314 -5.27647 14.912 1.71197 -0.0 0.0 0.0 -0.0 0.0 0.0 -7.98126e-14 -1.93299e-13 2.0686e-15 43.9627 13.0773 1.6572 -7.33385 -3.26251 12.2182 -0.00444186 -4.03338 -0.56675 1.25522e-09 -1.25652e-09 8.21611e-10 2.16668e-09 -2.16782e-09 1.42435e-09 1.25523e-09 -1.25652e-09 8.21612e-10 7.73091 5.47488 0.417314 1.25522e-09 -1.25651e-09 8.21617e-10 2.90554 0.965183 0.102902 1.25522e-09 -1.25652e-09 8.21614e-10 10.2786 0.731801 0.0259123 1.25521e-09 -1.25651e-09 8.21622e-10 2.22167 -0.733487 -0.20892 -7.98975e-14 -1.93296e-13 1.7052e-15 -45.4736 16.6366 -3.91453 6.13338 -2.51685 -10.2961 0.000228813 0.87439 -0.122887 1.75159e-09 1.33911e-09 1.72197e-11 3.02677e-09 2.31365e-09 2.67906e-11 1.75158e-09 1.33911e-09 1.72313e-11 -7.73091 5.47488 -0.417314 1.75159e-09 1.33911e-09 1.72233e-11 -2.90554 0.965183 -0.102902 1.75158e-09 1.33911e-09 1.72234e-11 -10.2786 0.731801 -0.0259123 1.75159e-09 1.33911e-09 1.72151e-11 -2.22167 -0.733487 0.20892 -2.03217e-16 0.0 -3.88251e-19 1.52579 -11.3311 0.596797 -0.0227258 14.675 0.226947 -1.11771 -3.64448 -4.00982 2.03217e-16 0.0 3.88251e-19 2.32192 -13.2022 2.64165 0.00848555 21.5815 -0.362853 1.60162 -8.97202 5.22597
4.83611 82.3263 -46.1545 -6.2817 -6.9813 8.1479 0.497541 -7.47485 1.81833 4.03813 3.67071 0.244953 1.25877 0.303968 0.603208 -8.01353 21.7318 2.59772 -0.0 0.0 0.0 -0.0 0.0 0.0 -1.17728e-13 -2.73086e-13 5.85561e-15 63.8401 19.0684 2.4968 -10.234 -4.63461 17.8484 -0.0333123 -5.88452 -0.829228 1.73045e-09 -1.73299e-09 1.16015e-09 2.98687e-09 -2.98952e-09 2.01124e-09 1.73046e-09 -1.73299e-09 1.16015e-09 7.73091 5.47488 0.417314 1.73044e-09 -1.73299e-09 1.16016e-09 2.90554 0.965183 0.102902 1.73045e-09 -1.73299e-09 1.16015e-09 10.2786 0.731801 0.0259123 1.73044e-09 -1.73299e-09 1.16016e-09 2.22167 -0.733487 -0.20892 -1.17807e-13 -2.73082e-13 5.46541e-15 -65.4885 24.1978 -5.99804 8.64419 -3.60307 -15.0309 0.00155533 1.26495 -0.177799 2.42119e-09 1.88656e-09 3.88145e-11 4.18387e-09 3.25952e-09 6.28967e-11 2.42118e-09 1.88656e-09 3.88243e-11 -7.73091 5.47488 -0.417314 2.42119e-09 1.88656e-09 3.88182e-11 -2.90554 0.965183 -0.102902 2.42118e-09 1.88656e-09 3.88174e-11 -10.2786 0.731801 -0.0259123 2.42119e-09 1.88656e-09 3.88108e-11 -2.22167 -0.733487 0.20892 -2.03217e-16 0.0 -3.88251e-19 2.59051 -15.6439 0.889448 -0.0923983 22.3515 0.384053 -1.76814 -7.12806 -5.94757 2.03217e-16 0.0 3.88251e-19 4.35681 -16.2655 3.83199 0.0738871 28.6296 -0.525322 2.67513 -13.1496 7.76102
4.83077 82.3279 -46.1475 -6.2921 -7.0155 8.1217 1.01475 -9.11431 2.21541 5.01366 4.48019 0.308622 1.52505 0.36947 0.737215 -10.0578 26.4635 3.28829 -0.0 0.0 0.0 -0.0 0.0 0.0 -1.3534e-13 -2.96589e-13 1.8487e-14 77.5594 23.2606 3.15672 -12.0914 -5.51299 21.787 -0.0637337 -7.18481 -1.01514 1.82993e-09 -1.70275e-09 1.25194e-09 3.15821e-09 -2.93591e-09 2.17034e-09 1.82994e-09 -1.70275e-09 1.25194e-09 7.73091 5.47488 0.417314 1.82993e-09 -1.70274e-09 1.25195e-09 2.90554 0.965183 0.102902 1.82994e-09 -1.70274e-09 1.25195e-09 10.2786 0.731801 0.0259123 1.82992e-09 -1.70274e-09 1.25195e-09 2.22167 -0.733487 -0.20892 -1.35414e-13 -2.96585e-13 1.80894e-14 -79.0685 29.4229 -7.66012 10.2865 -4.31726 -18.3398 0.00276051 1.50005 -0.210868 2.53562e-09 2.02772e-09 9.78084e-11 4.38159e-09 3.50349e-09 1.64558e-10 2.53561e-09 2.02771e-09 9.7818e-11 -7.73091 5.47488 -0.417314 2.53563e-09 2.02772e-09 9.78116e-11 -2.90554 0.965183 -0.102902 2.53561e-09 2.02771e-09 9.78108e-11 -10.2786 0.731801 -0.0259123 2.53562e-09 2.02772e-09 9.78052e-11 -2.22167 -0.733487 0.20892 -2.03217e-16 0.0 -3.88251e-19 3.37162 -18.6553 1.10431 -0.169376 27.6941 0.508035 -2.36722 -9.55991 -7.33328 2.03217e-16 0.0 3.88251e-19 5.8652 -18.4114 4.68378 0.148352 33.5502 -0.656714 3.64858 -16.0127 9.59384
4.83066 82.3246 -46.158 -6.314 -6.9549 8.1671 1.24213 -9.7679 2.33337 5.40108 4.81333 0.321205 1.61258 0.391017 0.793726 -10.8784 28.2783 3.58161 -0.0 0.0 0.0 -0.0 0.0 0.0 -1.20466e-13 -2.36e-13 5.32261e-14 82.8521 24.9464 3.48459 -12.78 -5.83626 23.3251 -0.0784239 -7.71651 -1.09159 1.27201e-09 -7.60867e-10 9.91182e-10 2.19393e-09 -1.30677e-09 1.71785e-09 1.27202e-09 -7.60865e-10 9.91183e-10 7.73091 5.47488 0.417314 1.27201e-09 -7.60862e-10 9.91186e-10 2.90554 0.965183 0.102902 1.27201e-09 -7.60863e-10 9.91187e-10 10.2786 0.731801 0.0259123 1.272e-09 -7.60861e-10 9.91192e-10 2.22167 -0.733487 -0.20892 -1.20537e-13 -2.35996e-13 5.28495e-14 -84.2929 31.4696 -8.38009 10.9031 -4.58352 -19.6317 0.00281753 1.47513 -0.207366 1.71473e-09 1.45691e-09 1.97852e-10 2.96285e-09 2.51734e-09 3.38757e-10 1.71473e-09 1.4569e-09 1.97864e-10 -7.73091 5.47488 -0.417314 1.71474e-09 1.4569e-09 1.97854e-10 -2.90554 0.965183 -0.102902 1.71473e-09 1.4569e-09 1.97855e-10 -10.2786 0.731801 -0.0259123 1.71474e-09 1.4569e-09 1.97849e-10 -2.22167 -0.733487 0.20892 -2.03217e-16 0.0 -3.88251e-19 3.70932 -19.8472 1.19264 -0.206872 29.7681 0.561136 -2.64524 -10.5584 -7.90017 2.03217e-16 0.0 3.88251e-19 6.49635 -19.2928 5.00793 0.18557 35.4936 -0.713632 4.0732 -17.1043 10.3131
